<svg xmlns="http://www.w3.org/2000/svg" width="215" height="71" fill="none" class="h-10 w-auto"><g clip-path="url(#a)"><path fill="#0E142F" d="M92.41 47.372h-4.284V36.428H77.11v10.944h-4.32v-25.2h4.32V32.36h11.016V22.172h4.284v25.2Zm9.684-21.654a2.37 2.37 0 0 1-1.764.738c-.696 0-1.29-.246-1.782-.738a2.428 2.428 0 0 1-.738-1.782c0-.696.246-1.284.738-1.764a2.459 2.459 0 0 1 1.782-.72c.696 0 1.284.24 1.764.72s.72 1.068.72 1.764-.24 1.29-.72 1.782Zm.324 21.654h-4.212V28.976h4.212v18.396Zm9.648 0h-4.212V28.976h4.212v1.908c.744-1.56 2.004-2.34 3.78-2.34a5.11 5.11 0 0 1 3.42 1.26l-.612 3.852c-.912-.648-1.956-.972-3.132-.972-.96 0-1.776.336-2.448 1.008-.672.672-1.008 1.8-1.008 3.384v10.296Zm17.784.432c-2.616 0-4.686-.858-6.21-2.574-1.524-1.716-2.286-4.074-2.286-7.074 0-2.976.768-5.322 2.304-7.038 1.536-1.716 3.6-2.574 6.192-2.574 2.352 0 4.278.732 5.778 2.196 1.5 1.464 2.25 3.612 2.25 6.444 0 .984-.048 1.848-.144 2.592H125.53c.072 1.296.522 2.34 1.35 3.132.828.792 1.818 1.188 2.97 1.188 1.632 0 2.928-.636 3.888-1.908l2.664 2.736c-1.608 1.92-3.792 2.88-6.552 2.88Zm-4.284-11.52h8.136c-.096-1.32-.504-2.322-1.224-3.006-.72-.684-1.596-1.026-2.628-1.026-1.2 0-2.19.33-2.97.99-.78.66-1.218 1.674-1.314 3.042Zm16.992 11.088v-25.2h7.776c1.704 0 3.252.24 4.644.72 1.392.48 2.544 1.116 3.456 1.908a10.516 10.516 0 0 1 2.286 2.826 12.97 12.97 0 0 1 1.332 3.42c.276 1.188.414 2.43.414 3.726 0 1.2-.126 2.376-.378 3.528a12.71 12.71 0 0 1-1.296 3.402 11.136 11.136 0 0 1-2.286 2.916c-.912.828-2.082 1.494-3.51 1.998s-3.03.756-4.806.756h-7.632Zm4.32-4.068h3.924c1.272 0 2.394-.252 3.366-.756s1.728-1.182 2.268-2.034a9.606 9.606 0 0 0 1.188-2.718c.252-.96.378-1.968.378-3.024 0-2.352-.576-4.362-1.728-6.03-1.152-1.668-2.844-2.502-5.076-2.502h-4.32v17.064Zm34.848 4.068h-4.104v-1.476c-1.224 1.272-2.856 1.908-4.896 1.908-1.968 0-3.57-.534-4.806-1.602-1.236-1.068-1.854-2.574-1.854-4.518 0-1.992.702-3.504 2.106-4.536 1.404-1.032 3.102-1.548 5.094-1.548 1.752 0 3.204.324 4.356.972V35.6c0-1.176-.294-2.028-.882-2.556-.588-.528-1.494-.792-2.718-.792-1.992 0-3.816.576-5.472 1.728l-1.296-3.42c1.992-1.344 4.392-2.016 7.2-2.016.96 0 1.806.078 2.538.234.732.156 1.488.462 2.268.918.78.456 1.386 1.176 1.818 2.16.432.984.648 2.208.648 3.672v11.844Zm-8.208-3.276c1.608 0 2.976-.588 4.104-1.764v-2.376c-1.056-.504-2.28-.756-3.672-.756-1.128 0-2.04.204-2.736.612-.696.408-1.044 1.032-1.044 1.872 0 .744.288 1.332.864 1.764.576.432 1.404.648 2.484.648Zm18.648 3.708c-2.856 0-4.284-1.572-4.284-4.716v-10.44h-2.736v-3.672h2.736v-5.58l4.212-2.016v7.596h4.248v3.672h-4.248v9.612c0 1.176.516 1.764 1.548 1.764.936 0 1.896-.276 2.88-.828l-.504 3.78c-1.056.552-2.34.828-3.852.828Zm22.788-.432h-4.104v-1.476c-1.224 1.272-2.856 1.908-4.896 1.908-1.968 0-3.57-.534-4.806-1.602-1.236-1.068-1.854-2.574-1.854-4.518 0-1.992.702-3.504 2.106-4.536 1.404-1.032 3.102-1.548 5.094-1.548 1.752 0 3.204.324 4.356.972V35.6c0-1.176-.294-2.028-.882-2.556-.588-.528-1.494-.792-2.718-.792-1.992 0-3.816.576-5.472 1.728l-1.296-3.42c1.992-1.344 4.392-2.016 7.2-2.016.96 0 1.806.078 2.538.234.732.156 1.488.462 2.268.918.78.456 1.386 1.176 1.818 2.16.432.984.648 2.208.648 3.672v11.844Zm-8.208-3.276c1.608 0 2.976-.588 4.104-1.764v-2.376c-1.056-.504-2.28-.756-3.672-.756-1.128 0-2.04.204-2.736.612-.696.408-1.044 1.032-1.044 1.872 0 .744.288 1.332.864 1.764.576.432 1.404.648 2.484.648Z"/><path fill="#7EC3C9" d="M33.12 1.722v41.93a1.71 1.71 0 0 1-1.25 1.65l-29.73 8.39c-.15.043-.304.066-.46.07A1.721 1.721 0 0 1 0 52.032v-41.92a1.73 1.73 0 0 1 1.25-1.66L30.97.062a1.74 1.74 0 0 1 1.51.29 1.71 1.71 0 0 1 .64 1.37Z"/><path fill="#0E142F" d="m53.91 22.122-8.83-1.61V8.122a1.73 1.73 0 0 0-1.407-1.687 1.71 1.71 0 0 0-.783.037l-29.73 8.38a1.67 1.67 0 0 0-.59.31c-.07 0-.1.14-.16.2a1.294 1.294 0 0 0-.15.2 1.69 1.69 0 0 0-.31.92v44.63c.007.238.061.473.16.69l.1.17c.088.156.203.295.34.41l.08.1h.06c.2.146.428.248.67.3l40 7.3c.103.01.207.01.31 0a1.72 1.72 0 0 0 1.72-1.72v-44.54a1.73 1.73 0 0 0-1.48-1.7Zm-12.28-2.24-20.39-3.73 20.39-5.75v9.48Zm-26.28-1.29 26.28 4.81v28.06l-26.28 7.41v-40.28Zm36.53 47.82-30.64-5.6 22.55-6.4a1.71 1.71 0 0 0 1.26-1.65v-28.75l6.8 1.24.03 41.16Z"/></g><defs><clipPath id="a"><path fill="#fff" d="M0 0h214.954v70.09H0z"/></clipPath></defs></svg>