<?xml version="1.0" encoding="UTF-8" standalone="no"?>
<svg
   fill="none"
   class="h-10 w-auto"
   viewBox="0 0 214.95401 70.089504"
   version="1.1"
   id="svg4"
   sodipodi:docname="logo-full.svg"
   width="214.95399"
   height="70.0895"
   inkscape:version="1.3.2 (091e20e, 2023-11-25)"
   xmlns:inkscape="http://www.inkscape.org/namespaces/inkscape"
   xmlns:sodipodi="http://sodipodi.sourceforge.net/DTD/sodipodi-0.dtd"
   xmlns="http://www.w3.org/2000/svg"
   xmlns:svg="http://www.w3.org/2000/svg">
  <sodipodi:namedview
     id="namedview4"
     pagecolor="#000000"
     bordercolor="#000000"
     borderopacity="0"
     inkscape:showpageshadow="2"
     inkscape:pageopacity="0.0"
     inkscape:pagecheckerboard="true"
     inkscape:deskcolor="#d1d1d1"
     showguides="true"
     labelstyle="default"
     shape-rendering="auto"
     inkscape:zoom="3.3670996"
     inkscape:cx="107.36243"
     inkscape:cy="35.044998"
     inkscape:window-width="1312"
     inkscape:window-height="449"
     inkscape:window-x="2032"
     inkscape:window-y="314"
     inkscape:window-maximized="0"
     inkscape:current-layer="svg4" />
  <g
     clip-path="url(#a)"
     id="g3"
     style="display:inline">
    <path
       fill="#0e142f"
       d="M 92.41,47.372 H 88.126 V 36.428 H 77.11 v 10.944 h -4.32 v -25.2 h 4.32 V 32.36 H 88.126 V 22.172 h 4.284 z m 9.684,-21.654 a 2.37,2.37 0 0 1 -1.764,0.738 c -0.696,0 -1.29,-0.246 -1.782,-0.738 A 2.428,2.428 0 0 1 97.81,23.936 c 0,-0.696 0.246,-1.284 0.738,-1.764 a 2.459,2.459 0 0 1 1.782,-0.72 c 0.696,0 1.284,0.24 1.764,0.72 0.48,0.48 0.72,1.068 0.72,1.764 0,0.696 -0.24,1.29 -0.72,1.782 z m 0.324,21.654 H 98.206 V 28.976 h 4.212 z m 9.648,0 h -4.212 V 28.976 h 4.212 v 1.908 c 0.744,-1.56 2.004,-2.34 3.78,-2.34 a 5.11,5.11 0 0 1 3.42,1.26 l -0.612,3.852 c -0.912,-0.648 -1.956,-0.972 -3.132,-0.972 -0.96,0 -1.776,0.336 -2.448,1.008 -0.672,0.672 -1.008,1.8 -1.008,3.384 z m 17.784,0.432 c -2.616,0 -4.686,-0.858 -6.21,-2.574 -1.524,-1.716 -2.286,-4.074 -2.286,-7.074 0,-2.976 0.768,-5.322 2.304,-7.038 1.536,-1.716 3.6,-2.574 6.192,-2.574 2.352,0 4.278,0.732 5.778,2.196 1.5,1.464 2.25,3.612 2.25,6.444 0,0.984 -0.048,1.848 -0.144,2.592 H 125.53 c 0.072,1.296 0.522,2.34 1.35,3.132 0.828,0.792 1.818,1.188 2.97,1.188 1.632,0 2.928,-0.636 3.888,-1.908 l 2.664,2.736 c -1.608,1.92 -3.792,2.88 -6.552,2.88 z m -4.284,-11.52 h 8.136 c -0.096,-1.32 -0.504,-2.322 -1.224,-3.006 -0.72,-0.684 -1.596,-1.026 -2.628,-1.026 -1.2,0 -2.19,0.33 -2.97,0.99 -0.78,0.66 -1.218,1.674 -1.314,3.042 z m 16.992,11.088 v -25.2 h 7.776 c 1.704,0 3.252,0.24 4.644,0.72 1.392,0.48 2.544,1.116 3.456,1.908 a 10.516,10.516 0 0 1 2.286,2.826 12.97,12.97 0 0 1 1.332,3.42 c 0.276,1.188 0.414,2.43 0.414,3.726 0,1.2 -0.126,2.376 -0.378,3.528 a 12.71,12.71 0 0 1 -1.296,3.402 11.136,11.136 0 0 1 -2.286,2.916 c -0.912,0.828 -2.082,1.494 -3.51,1.998 -1.428,0.504 -3.03,0.756 -4.806,0.756 z m 4.32,-4.068 h 3.924 c 1.272,0 2.394,-0.252 3.366,-0.756 0.972,-0.504 1.728,-1.182 2.268,-2.034 a 9.606,9.606 0 0 0 1.188,-2.718 c 0.252,-0.96 0.378,-1.968 0.378,-3.024 0,-2.352 -0.576,-4.362 -1.728,-6.03 -1.152,-1.668 -2.844,-2.502 -5.076,-2.502 h -4.32 z m 34.848,4.068 h -4.104 v -1.476 c -1.224,1.272 -2.856,1.908 -4.896,1.908 -1.968,0 -3.57,-0.534 -4.806,-1.602 -1.236,-1.068 -1.854,-2.574 -1.854,-4.518 0,-1.992 0.702,-3.504 2.106,-4.536 1.404,-1.032 3.102,-1.548 5.094,-1.548 1.752,0 3.204,0.324 4.356,0.972 V 35.6 c 0,-1.176 -0.294,-2.028 -0.882,-2.556 -0.588,-0.528 -1.494,-0.792 -2.718,-0.792 -1.992,0 -3.816,0.576 -5.472,1.728 l -1.296,-3.42 c 1.992,-1.344 4.392,-2.016 7.2,-2.016 0.96,0 1.806,0.078 2.538,0.234 0.732,0.156 1.488,0.462 2.268,0.918 0.78,0.456 1.386,1.176 1.818,2.16 0.432,0.984 0.648,2.208 0.648,3.672 z m -8.208,-3.276 c 1.608,0 2.976,-0.588 4.104,-1.764 v -2.376 c -1.056,-0.504 -2.28,-0.756 -3.672,-0.756 -1.128,0 -2.04,0.204 -2.736,0.612 -0.696,0.408 -1.044,1.032 -1.044,1.872 0,0.744 0.288,1.332 0.864,1.764 0.576,0.432 1.404,0.648 2.484,0.648 z m 18.648,3.708 c -2.856,0 -4.284,-1.572 -4.284,-4.716 v -10.44 h -2.736 v -3.672 h 2.736 v -5.58 l 4.212,-2.016 v 7.596 h 4.248 v 3.672 h -4.248 v 9.612 c 0,1.176 0.516,1.764 1.548,1.764 0.936,0 1.896,-0.276 2.88,-0.828 l -0.504,3.78 c -1.056,0.552 -2.34,0.828 -3.852,0.828 z m 22.788,-0.432 h -4.104 v -1.476 c -1.224,1.272 -2.856,1.908 -4.896,1.908 -1.968,0 -3.57,-0.534 -4.806,-1.602 -1.236,-1.068 -1.854,-2.574 -1.854,-4.518 0,-1.992 0.702,-3.504 2.106,-4.536 1.404,-1.032 3.102,-1.548 5.094,-1.548 1.752,0 3.204,0.324 4.356,0.972 V 35.6 c 0,-1.176 -0.294,-2.028 -0.882,-2.556 -0.588,-0.528 -1.494,-0.792 -2.718,-0.792 -1.992,0 -3.816,0.576 -5.472,1.728 l -1.296,-3.42 c 1.992,-1.344 4.392,-2.016 7.2,-2.016 0.96,0 1.806,0.078 2.538,0.234 0.732,0.156 1.488,0.462 2.268,0.918 0.78,0.456 1.386,1.176 1.818,2.16 0.432,0.984 0.648,2.208 0.648,3.672 z m -8.208,-3.276 c 1.608,0 2.976,-0.588 4.104,-1.764 v -2.376 c -1.056,-0.504 -2.28,-0.756 -3.672,-0.756 -1.128,0 -2.04,0.204 -2.736,0.612 -0.696,0.408 -1.044,1.032 -1.044,1.872 0,0.744 0.288,1.332 0.864,1.764 0.576,0.432 1.404,0.648 2.484,0.648 z"
       id="path1" />
    <path
       fill="#7ec3c9"
       d="m 33.12,1.722 v 41.93 a 1.71,1.71 0 0 1 -1.25,1.65 l -29.73,8.39 c -0.15,0.043 -0.304,0.066 -0.46,0.07 A 1.721,1.721 0 0 1 0,52.032 v -41.92 a 1.73,1.73 0 0 1 1.25,-1.66 l 29.72,-8.39 a 1.74,1.74 0 0 1 1.51,0.29 1.71,1.71 0 0 1 0.64,1.37 z"
       id="path2" />
    <path
       fill="#0e142f"
       d="m 53.91,22.122 -8.83,-1.61 V 8.122 A 1.73,1.73 0 0 0 43.673,6.435 1.71,1.71 0 0 0 42.89,6.472 l -29.73,8.38 a 1.67,1.67 0 0 0 -0.59,0.31 c -0.07,0 -0.1,0.14 -0.16,0.2 a 1.294,1.294 0 0 0 -0.15,0.2 1.69,1.69 0 0 0 -0.31,0.92 v 44.63 c 0.007,0.238 0.061,0.473 0.16,0.69 l 0.1,0.17 c 0.088,0.156 0.203,0.295 0.34,0.41 l 0.08,0.1 h 0.06 c 0.2,0.146 0.428,0.248 0.67,0.3 l 40,7.3 c 0.103,0.01 0.207,0.01 0.31,0 a 1.72,1.72 0 0 0 1.72,-1.72 v -44.54 a 1.73,1.73 0 0 0 -1.48,-1.7 z m -12.28,-2.24 -20.39,-3.73 20.39,-5.75 z m -26.28,-1.29 26.28,4.81 v 28.06 l -26.28,7.41 z m 36.53,47.82 -30.64,-5.6 22.55,-6.4 a 1.71,1.71 0 0 0 1.26,-1.65 v -28.75 l 6.8,1.24 z"
       id="path3" />
  </g>
  <defs
     id="defs4">
    <clipPath
       id="a">
      <path
         fill="#ffffff"
         d="M 0,0 H 214.954 V 70.09 H 0 Z"
         id="path4" />
    </clipPath>
    <clipPath
       clipPathUnits="userSpaceOnUse"
       id="clipPath7">
      <rect
         style="opacity:0.4;fill:#1a1a1a"
         id="rect8"
         width="55.240421"
         height="70.089996"
         x="0"
         y="0" />
    </clipPath>
  </defs>
</svg>
